<!DOCTYPE svg PUBLIC "-//W3C//DTD SVG 1.1//EN" "http://www.w3.org/Graphics/SVG/1.1/DTD/svg11.dtd">
<!-- Uploaded to: SVG Repo, www.svgrepo.com, Transformed by: SVG Repo Mixer Tools -->
<svg fill="#ffffff" height="800px" width="800px" version="1.1" id="Layer_1" xmlns="http://www.w3.org/2000/svg" xmlns:xlink="http://www.w3.org/1999/xlink" viewBox="0 0 458.229 458.229" xml:space="preserve" stroke="#ffffff">
<g id="SVGRepo_bgCarrier" stroke-width="0"/>
<g id="SVGRepo_tracerCarrier" stroke-linecap="round" stroke-linejoin="round"/>
<g id="SVGRepo_iconCarrier"> <g> <g> <path d="M413.512,252.167c0.684-4.594,1.028-9.24,1.028-13.909c0-52.102-42.388-94.49-94.49-94.49 c-7.398,0-14.685,0.85-21.788,2.534c-10.497-20.268-25.777-37.654-44.765-50.808C230,79.218,202.421,70.615,173.742,70.615 c-77.313,0-140.212,62.899-140.212,140.212c0,14.852,2.275,29.321,6.781,43.2C16.175,265.316,0,289.75,0,317.509 c0,38.656,31.449,70.105,70.106,70.105h318.017c38.656,0,70.106-31.449,70.106-70.106 C458.229,288.149,439.873,262.434,413.512,252.167z M388.122,357.133H70.105c-21.849,0-39.625-17.776-39.625-39.625 c0-19.217,13.709-35.614,32.598-38.989c4.657-0.832,8.663-3.779,10.844-7.977c2.181-4.198,2.288-9.171,0.291-13.459 c-6.77-14.539-10.203-30.103-10.203-46.257c0-60.506,49.225-109.731,109.731-109.731c45.354,0,85.429,27.251,102.094,69.424 c1.498,3.79,4.451,6.823,8.201,8.42c3.75,1.597,7.983,1.626,11.754,0.08c7.72-3.165,15.881-4.77,24.258-4.77 c35.295,0,64.01,28.715,64.01,64.01c0,6.832-1.088,13.589-3.234,20.087c-1.425,4.314-0.851,9.04,1.567,12.887 c2.417,3.847,6.425,6.415,10.93,7.004c19.626,2.565,34.426,19.448,34.426,39.271C427.747,339.357,409.971,357.133,388.122,357.133 z"/> </g> </g> </g>
</svg>